<svg width="180" height="47" viewBox="0 0 180 47" fill="none" xmlns="http://www.w3.org/2000/svg">
<path d="M50.2762 11.1987C50.2762 12.0072 50.0537 12.7345 49.6994 13.2566C49.3447 13.7793 48.8659 14.087 48.3508 14.087C47.8356 14.087 47.3569 13.7793 47.0022 13.2566C46.6479 12.7345 46.4254 12.0072 46.4254 11.1987C46.4254 10.3901 46.6479 9.66281 47.0022 9.14072C47.3569 8.61803 47.8356 8.3103 48.3508 8.3103C48.8659 8.3103 49.3447 8.61803 49.6994 9.14072C50.0537 9.66281 50.2762 10.3901 50.2762 11.1987Z" stroke="white"/>
<path d="M42.7886 11.1987C42.7886 12.0072 42.5661 12.7345 42.2118 13.2566C41.8572 13.7793 41.3784 14.087 40.8632 14.087C40.348 14.087 39.8693 13.7793 39.5147 13.2566C39.1604 12.7345 38.9379 12.0072 38.9379 11.1987C38.9379 10.3901 39.1604 9.66281 39.5147 9.14072C39.8693 8.61803 40.348 8.3103 40.8632 8.3103C41.3784 8.3103 41.8572 8.61803 42.2118 9.14072C42.5661 9.66281 42.7886 10.3901 42.7886 11.1987Z" stroke="white"/>
<path d="M34.4453 9.91488C34.2742 10.7707 33.8748 14.087 33.8035 15.6917L33.7053 15.6832C30.0666 15.3688 26.6168 15.0708 24.3906 17.4033C23.7779 18.0451 23.2032 19.5875 24.1766 20.8265C28.8831 26.8172 33.5896 23.394 34.0174 26.1754C34.4406 28.9264 35.5149 31.4172 36.6915 33.1289C37.8682 34.8405 39.5796 37.6219 40.0075 38.4777C40.3497 39.1623 40.7563 39.6544 40.0075 40.7242L37.0124 44.0405L36.9917 44.0647C36.3546 44.8077 35.6364 45.6451 38.9378 45.6451C43.1094 45.6451 46.3942 43.4908 47.495 42.7568C48.7786 41.901 53.699 36.98 54.8756 34.8405C56.0523 32.701 56.3731 29.3847 56.1592 26.7103C55.9453 24.0358 55.5174 26.8172 59.903 25.4265C64.2646 24.0433 65.029 22.1312 65.2478 21.5842L65.2513 21.5754C65.4829 20.9962 65.5722 18.687 64.5025 17.5103C63.6468 16.5689 61.9353 16.0126 60.9727 16.0126L56.1592 15.7986C55.7314 15.6916 55.2393 16.1196 54.9826 13.1242C54.7259 10.1289 53.7703 7.66837 53.3781 6.70558C52.5581 5.17226 50.6612 1.76327 47.0672 1.24978C42.5747 0.607922 40.6493 1.24981 38.617 2.64046C36.0086 4.42528 34.6592 8.84511 34.4453 9.91488Z" stroke="white"/>
<path d="M24.13 29.235C23.674 29.539 23.0533 29.881 22.268 30.261C21.4827 30.641 20.558 30.9577 19.494 31.211C18.4553 31.4643 17.3153 31.591 16.074 31.591C13.946 31.5657 12.0207 31.1857 10.298 30.451C8.60067 29.7163 7.15667 28.7157 5.966 27.449C4.77533 26.1823 3.85067 24.7257 3.192 23.079C2.55867 21.407 2.242 19.6337 2.242 17.759C2.242 15.707 2.57133 13.8197 3.23 12.097C3.914 10.349 4.864 8.84165 6.08 7.57499C7.296 6.28299 8.72733 5.28232 10.374 4.57299C12.046 3.86365 13.87 3.50899 15.846 3.50899C17.4927 3.50899 18.9873 3.73699 20.33 4.19299C21.6727 4.62365 22.8253 5.14299 23.788 5.75099L22.306 9.17099C21.546 8.66432 20.6213 8.18299 19.532 7.72699C18.468 7.27099 17.2773 7.04299 15.96 7.04299C14.6173 7.04299 13.3507 7.30899 12.16 7.84099C10.9693 8.37299 9.918 9.12032 9.006 10.083C8.094 11.0457 7.372 12.173 6.84 13.465C6.33333 14.7317 6.08 16.0997 6.08 17.569C6.08 19.0637 6.308 20.457 6.764 21.749C7.24533 23.0157 7.91667 24.1177 8.778 25.055C9.66467 25.9923 10.7287 26.727 11.97 27.259C13.2113 27.791 14.6047 28.057 16.15 28.057C17.5433 28.057 18.7847 27.8417 19.874 27.411C20.9633 26.9803 21.8627 26.499 22.572 25.967L24.13 29.235ZM80.6191 8.71499C79.6817 8.23365 78.6557 7.81565 77.5411 7.46099C76.4264 7.10632 75.3371 6.92899 74.2731 6.92899C72.8037 6.92899 71.6257 7.27099 70.7391 7.95499C69.8777 8.63899 69.4471 9.55099 69.4471 10.691C69.4471 11.5523 69.7257 12.287 70.2831 12.895C70.8404 13.4777 71.5751 13.9843 72.4871 14.415C73.3991 14.8457 74.3491 15.251 75.3371 15.631C76.1984 15.9603 77.0471 16.3277 77.8831 16.733C78.7191 17.1383 79.4664 17.645 80.1251 18.253C80.8091 18.861 81.3411 19.6083 81.7211 20.495C82.1264 21.3817 82.3291 22.4837 82.3291 23.801C82.3291 25.245 81.9617 26.5623 81.2271 27.753C80.5177 28.9437 79.4917 29.881 78.1491 30.565C76.8064 31.249 75.2104 31.591 73.3611 31.591C72.1451 31.591 70.9797 31.4517 69.8651 31.173C68.7757 30.8943 67.7624 30.5397 66.8251 30.109C65.8877 29.653 65.0517 29.1843 64.3171 28.703L65.9511 25.815C66.5591 26.2457 67.2557 26.6637 68.0411 27.069C68.8264 27.449 69.6497 27.7657 70.5111 28.019C71.3724 28.247 72.2084 28.361 73.0191 28.361C73.8804 28.361 74.7291 28.209 75.5651 27.905C76.4264 27.5757 77.1357 27.0817 77.6931 26.423C78.2504 25.7643 78.5291 24.8903 78.5291 23.801C78.5291 22.8637 78.2757 22.091 77.7691 21.483C77.2877 20.8497 76.6417 20.3177 75.8311 19.887C75.0204 19.431 74.1591 19.0257 73.2471 18.671C72.3857 18.3417 71.5117 17.987 70.6251 17.607C69.7384 17.2017 68.9151 16.7203 68.1551 16.163C67.3951 15.5803 66.7871 14.871 66.3311 14.035C65.8751 13.199 65.6471 12.1857 65.6471 10.995C65.6471 9.55099 65.9891 8.29699 66.6731 7.23299C67.3824 6.14365 68.3451 5.29499 69.5611 4.68699C70.7771 4.05365 72.1704 3.71165 73.7411 3.66099C75.5144 3.66099 77.0724 3.87632 78.4151 4.30699C79.7831 4.73765 80.9864 5.26965 82.0251 5.90299L80.6191 8.71499ZM95.8583 3.81299C97.8596 3.81299 99.5696 4.15499 100.988 4.83899C102.407 5.49765 103.496 6.46032 104.256 7.72699C105.042 8.99365 105.434 10.5263 105.434 12.325C105.434 13.4143 105.27 14.491 104.94 15.555C104.611 16.5937 104.079 17.5437 103.344 18.405C102.635 19.241 101.698 19.9123 100.532 20.419C99.3669 20.9257 97.9483 21.179 96.2763 21.179H92.2103V31.287H88.5243V3.81299H95.8583ZM96.2383 17.645C97.3276 17.645 98.2269 17.4677 98.9363 17.113C99.6456 16.7583 100.203 16.315 100.608 15.783C101.014 15.2257 101.305 14.643 101.482 14.035C101.66 13.427 101.748 12.8823 101.748 12.401C101.748 11.8437 101.66 11.2737 101.482 10.691C101.305 10.083 101.001 9.53832 100.57 9.05699C100.165 8.55032 99.6203 8.14499 98.9363 7.84099C98.2776 7.51165 97.4543 7.34699 96.4663 7.34699H92.2103V17.645H96.2383ZM118.458 3.81299C120.459 3.81299 122.169 4.15499 123.588 4.83899C125.007 5.49765 126.096 6.46032 126.856 7.72699C127.641 8.99365 128.034 10.5263 128.034 12.325C128.034 13.4143 127.869 14.491 127.54 15.555C127.211 16.5937 126.679 17.5437 125.944 18.405C125.235 19.241 124.297 19.9123 123.132 20.419C121.967 20.9257 120.548 21.179 118.876 21.179H114.81V31.287H111.124V3.81299H118.458ZM118.838 17.645C119.927 17.645 120.827 17.4677 121.536 17.113C122.245 16.7583 122.803 16.315 123.208 15.783C123.613 15.2257 123.905 14.643 124.082 14.035C124.259 13.427 124.348 12.8823 124.348 12.401C124.348 11.8437 124.259 11.2737 124.082 10.691C123.905 10.083 123.601 9.53832 123.17 9.05699C122.765 8.55032 122.22 8.14499 121.536 7.84099C120.877 7.51165 120.054 7.34699 119.066 7.34699H114.81V17.645H118.838ZM133.723 3.81299H151.583V7.34699H137.409V15.707H150.063V19.241H137.409V27.753H152.115V31.287H133.723V3.81299ZM165.809 3.81299C167.202 3.81299 168.481 4.00299 169.647 4.38299C170.837 4.73765 171.863 5.28232 172.725 6.01699C173.611 6.72632 174.295 7.61299 174.777 8.67699C175.283 9.71565 175.537 10.9317 175.537 12.325C175.537 13.4143 175.372 14.4783 175.043 15.517C174.739 16.5557 174.219 17.5057 173.485 18.367C172.75 19.203 171.787 19.887 170.597 20.419C169.431 20.9257 167.987 21.179 166.265 21.179H162.199V31.287H158.513V3.81299H165.809ZM166.189 17.645C167.278 17.645 168.177 17.4803 168.887 17.151C169.621 16.8217 170.191 16.4037 170.597 15.897C171.002 15.365 171.293 14.795 171.471 14.187C171.648 13.579 171.737 13.009 171.737 12.477C171.737 11.9197 171.635 11.3497 171.433 10.767C171.255 10.159 170.951 9.60165 170.521 9.09499C170.115 8.58832 169.571 8.17032 168.887 7.84099C168.228 7.51165 167.417 7.34699 166.455 7.34699H162.199V17.645H166.189ZM170.711 19.735L177.893 31.287H173.637L166.341 19.849L170.711 19.735Z" fill="white"/>
</svg>
