<svg width="197" height="54" viewBox="0 0 197 54" fill="none" xmlns="http://www.w3.org/2000/svg">
<path d="M63.2762 15.9117C63.2762 16.7203 63.0537 17.4476 62.6994 17.9696C62.3447 18.4923 61.8659 18.8001 61.3508 18.8001C60.8356 18.8001 60.3569 18.4923 60.0022 17.9696C59.6479 17.4476 59.4254 16.7203 59.4254 15.9117C59.4254 15.1031 59.6479 14.3758 60.0022 13.8537C60.3569 13.331 60.8356 13.0233 61.3508 13.0233C61.8659 13.0233 62.3447 13.331 62.6994 13.8537C63.0537 14.3758 63.2762 15.1031 63.2762 15.9117Z" stroke="#42729E"/>
<path d="M55.7886 15.9117C55.7886 16.7203 55.5661 17.4476 55.2118 17.9696C54.8572 18.4923 54.3784 18.8001 53.8632 18.8001C53.348 18.8001 52.8693 18.4923 52.5147 17.9696C52.1604 17.4476 51.9379 16.7203 51.9379 15.9117C51.9379 15.1031 52.1604 14.3758 52.5147 13.8537C52.8693 13.331 53.348 13.0233 53.8632 13.0233C54.3784 13.0233 54.8572 13.331 55.2118 13.8537C55.5661 14.3758 55.7886 15.1031 55.7886 15.9117Z" stroke="#42729E"/>
<path d="M47.4453 14.6279C47.2742 15.4837 46.8748 18.8 46.8035 20.4047L46.7053 20.3962C43.0666 20.0818 39.6168 19.7838 37.3906 22.1163C36.7779 22.7581 36.2032 24.3005 37.1766 25.5395C41.8831 31.5302 46.5896 28.107 47.0174 30.8884C47.4406 33.6394 48.5149 36.1302 49.6915 37.8419C50.8682 39.5535 52.5796 42.3349 53.0075 43.1907C53.3497 43.8754 53.7563 44.3675 53.0075 45.4372L50.0124 48.7535L49.9917 48.7777C49.3546 49.5207 48.6364 50.3582 51.9378 50.3582C56.1094 50.3582 59.3942 48.2039 60.495 47.4698C61.7786 46.614 66.699 41.693 67.8756 39.5535C69.0523 37.414 69.3731 34.0977 69.1592 31.4233C68.9453 28.7488 68.5174 31.5302 72.903 30.1395C77.2646 28.7563 78.029 26.8442 78.2478 26.2972L78.2513 26.2884C78.4829 25.7092 78.5722 23.4 77.5025 22.2233C76.6468 21.2819 74.9353 20.7256 73.9727 20.7256L69.1592 20.5116C68.7314 20.4046 68.2393 20.8326 67.9826 17.8372C67.7259 14.8419 66.7703 12.3814 66.3781 11.4186C65.5581 9.88527 63.6612 6.47628 60.0672 5.96279C55.5747 5.32093 53.6493 5.96282 51.617 7.35348C49.0086 9.1383 47.6592 13.5581 47.4453 14.6279Z" stroke="#42729E"/>
<path d="M37.13 33.948C36.674 34.252 36.0533 34.594 35.268 34.974C34.4827 35.354 33.558 35.6707 32.494 35.924C31.4553 36.1773 30.3153 36.304 29.074 36.304C26.946 36.2787 25.0207 35.8987 23.298 35.164C21.6007 34.4293 20.1567 33.4287 18.966 32.162C17.7753 30.8953 16.8507 29.4387 16.192 27.792C15.5587 26.12 15.242 24.3467 15.242 22.472C15.242 20.42 15.5713 18.5327 16.23 16.81C16.914 15.062 17.864 13.5547 19.08 12.288C20.296 10.996 21.7273 9.99533 23.374 9.286C25.046 8.57667 26.87 8.222 28.846 8.222C30.4927 8.222 31.9873 8.45 33.33 8.906C34.6727 9.33666 35.8253 9.856 36.788 10.464L35.306 13.884C34.546 13.3773 33.6213 12.896 32.532 12.44C31.468 11.984 30.2773 11.756 28.96 11.756C27.6173 11.756 26.3507 12.022 25.16 12.554C23.9693 13.086 22.918 13.8333 22.006 14.796C21.094 15.7587 20.372 16.886 19.84 18.178C19.3333 19.4447 19.08 20.8127 19.08 22.282C19.08 23.7767 19.308 25.17 19.764 26.462C20.2453 27.7287 20.9167 28.8307 21.778 29.768C22.6647 30.7053 23.7287 31.44 24.97 31.972C26.2113 32.504 27.6047 32.77 29.15 32.77C30.5433 32.77 31.7847 32.5547 32.874 32.124C33.9633 31.6933 34.8627 31.212 35.572 30.68L37.13 33.948ZM93.6191 13.428C92.6817 12.9467 91.6557 12.5287 90.5411 12.174C89.4264 11.8193 88.3371 11.642 87.2731 11.642C85.8037 11.642 84.6257 11.984 83.7391 12.668C82.8777 13.352 82.4471 14.264 82.4471 15.404C82.4471 16.2653 82.7257 17 83.2831 17.608C83.8404 18.1907 84.5751 18.6973 85.4871 19.128C86.3991 19.5587 87.3491 19.964 88.3371 20.344C89.1984 20.6733 90.0471 21.0407 90.8831 21.446C91.7191 21.8513 92.4664 22.358 93.1251 22.966C93.8091 23.574 94.3411 24.3213 94.7211 25.208C95.1264 26.0947 95.3291 27.1967 95.3291 28.514C95.3291 29.958 94.9617 31.2753 94.2271 32.466C93.5177 33.6567 92.4917 34.594 91.1491 35.278C89.8064 35.962 88.2104 36.304 86.3611 36.304C85.1451 36.304 83.9797 36.1647 82.8651 35.886C81.7757 35.6073 80.7624 35.2527 79.8251 34.822C78.8877 34.366 78.0517 33.8973 77.3171 33.416L78.9511 30.528C79.5591 30.9587 80.2557 31.3767 81.0411 31.782C81.8264 32.162 82.6497 32.4787 83.5111 32.732C84.3724 32.96 85.2084 33.074 86.0191 33.074C86.8804 33.074 87.7291 32.922 88.5651 32.618C89.4264 32.2887 90.1357 31.7947 90.6931 31.136C91.2504 30.4773 91.5291 29.6033 91.5291 28.514C91.5291 27.5767 91.2757 26.804 90.7691 26.196C90.2877 25.5627 89.6417 25.0307 88.8311 24.6C88.0204 24.144 87.1591 23.7387 86.2471 23.384C85.3857 23.0547 84.5117 22.7 83.6251 22.32C82.7384 21.9147 81.9151 21.4333 81.1551 20.876C80.3951 20.2933 79.7871 19.584 79.3311 18.748C78.8751 17.912 78.6471 16.8987 78.6471 15.708C78.6471 14.264 78.9891 13.01 79.6731 11.946C80.3824 10.8567 81.3451 10.008 82.5611 9.4C83.7771 8.76667 85.1704 8.42467 86.7411 8.374C88.5144 8.374 90.0724 8.58933 91.4151 9.02C92.7831 9.45067 93.9864 9.98267 95.0251 10.616L93.6191 13.428ZM108.858 8.526C110.86 8.526 112.57 8.868 113.988 9.552C115.407 10.2107 116.496 11.1733 117.256 12.44C118.042 13.7067 118.434 15.2393 118.434 17.038C118.434 18.1273 118.27 19.204 117.94 20.268C117.611 21.3067 117.079 22.2567 116.344 23.118C115.635 23.954 114.698 24.6253 113.532 25.132C112.367 25.6387 110.948 25.892 109.276 25.892H105.21V36H101.524V8.526H108.858ZM109.238 22.358C110.328 22.358 111.227 22.1807 111.936 21.826C112.646 21.4713 113.203 21.028 113.608 20.496C114.014 19.9387 114.305 19.356 114.482 18.748C114.66 18.14 114.748 17.5953 114.748 17.114C114.748 16.5567 114.66 15.9867 114.482 15.404C114.305 14.796 114.001 14.2513 113.57 13.77C113.165 13.2633 112.62 12.858 111.936 12.554C111.278 12.2247 110.454 12.06 109.466 12.06H105.21V22.358H109.238ZM131.458 8.526C133.459 8.526 135.169 8.868 136.588 9.552C138.007 10.2107 139.096 11.1733 139.856 12.44C140.641 13.7067 141.034 15.2393 141.034 17.038C141.034 18.1273 140.869 19.204 140.54 20.268C140.211 21.3067 139.679 22.2567 138.944 23.118C138.235 23.954 137.297 24.6253 136.132 25.132C134.967 25.6387 133.548 25.892 131.876 25.892H127.81V36H124.124V8.526H131.458ZM131.838 22.358C132.927 22.358 133.827 22.1807 134.536 21.826C135.245 21.4713 135.803 21.028 136.208 20.496C136.613 19.9387 136.905 19.356 137.082 18.748C137.259 18.14 137.348 17.5953 137.348 17.114C137.348 16.5567 137.259 15.9867 137.082 15.404C136.905 14.796 136.601 14.2513 136.17 13.77C135.765 13.2633 135.22 12.858 134.536 12.554C133.877 12.2247 133.054 12.06 132.066 12.06H127.81V22.358H131.838ZM146.723 8.526H164.583V12.06H150.409V20.42H163.063V23.954H150.409V32.466H165.115V36H146.723V8.526ZM178.809 8.526C180.202 8.526 181.481 8.716 182.647 9.096C183.837 9.45067 184.863 9.99533 185.725 10.73C186.611 11.4393 187.295 12.326 187.777 13.39C188.283 14.4287 188.537 15.6447 188.537 17.038C188.537 18.1273 188.372 19.1913 188.043 20.23C187.739 21.2687 187.219 22.2187 186.485 23.08C185.75 23.916 184.787 24.6 183.597 25.132C182.431 25.6387 180.987 25.892 179.265 25.892H175.199V36H171.513V8.526H178.809ZM179.189 22.358C180.278 22.358 181.177 22.1933 181.887 21.864C182.621 21.5347 183.191 21.1167 183.597 20.61C184.002 20.078 184.293 19.508 184.471 18.9C184.648 18.292 184.737 17.722 184.737 17.19C184.737 16.6327 184.635 16.0627 184.433 15.48C184.255 14.872 183.951 14.3147 183.521 13.808C183.115 13.3013 182.571 12.8833 181.887 12.554C181.228 12.2247 180.417 12.06 179.455 12.06H175.199V22.358H179.189ZM183.711 24.448L190.893 36H186.637L179.341 24.562L183.711 24.448Z" fill="#42729E"/>
</svg>
